<?xml version="1.0" encoding="UTF-8"?>
<svg id="Layer_1" data-name="Layer 1" xmlns="http://www.w3.org/2000/svg" viewBox="0 0 1080 1080">
  <defs>
    <style>
      .cls-1 {
        fill: #ebe8ff;
      }

      .cls-2 {
        fill: #ada4ff;
      }

      .cls-3 {
        fill: #d8d1ff;
      }

      .cls-4 {
        fill: #fffffd;
      }
    </style>
  </defs>
  <path class="cls-4" d="M540,57.64v482.36H57.64c0-17.16,6.55-34.31,19.64-47.41L492.6,77.27c13.09-13.09,30.24-19.64,47.4-19.64Z"/>
  <path class="cls-1" d="M1022.36,540h-482.36V57.64c17.16,0,34.31,6.55,47.4,19.64l415.33,415.32c13.09,13.1,19.64,30.25,19.64,47.41Z"/>
  <path class="cls-2" d="M1022.36,540c0,17.16-6.55,34.31-19.64,47.4l-415.33,415.33c-13.09,13.09-30.24,19.64-47.4,19.64v-482.36h482.36Z"/>
  <path class="cls-3" d="M540,540v482.36c-17.16,0-34.31-6.55-47.4-19.64L77.27,587.4c-13.09-13.09-19.64-30.24-19.64-47.4h482.36Z"/>
</svg>